<svg width="21" height="24" viewBox="0 0 21 24" fill="none" xmlns="http://www.w3.org/2000/svg">
  <path d="M10.3919 24L0 18.0032V5.9968L10.3919 0L20.7838 5.9968V18.0032L10.3919 24ZM1.55045 17.1062L10.3791 22.2061L19.2077 17.1062V6.90657L10.3791 1.80673L1.55045 6.90657V17.1062Z" fill="white"/>
  <path d="M10.9677 6.61182V8.41854L13.7867 10.0331V13.9669L10.9677 15.5814V17.3881L15.3499 14.8638V9.13611L10.9677 6.61182Z" fill="white"/>
  <path d="M6.99552 10.0331L9.81453 8.41854V6.61182L5.43225 9.13611V14.8638L9.81453 17.3881V15.5814L6.99552 13.9669V10.0331Z" fill="white"/>
  <path d="M10.392 3.1394L8.82874 4.03636L10.392 4.93332L11.1096 5.35617L13.5057 6.74005L16.5041 8.46989V14.1976L18.0674 13.2878V7.57293L10.392 3.1394Z" fill="white"/>
  <path d="M4.26615 12.314V8.46985L9.22504 5.61241L7.67458 4.70264L2.7157 7.5729V16.4271L4.26615 17.3369V12.314Z" fill="white"/>
  <path d="M16.5031 15.5301L10.391 19.0667L5.43213 16.1964V18.0032L10.391 20.8606L18.0664 16.4271V14.6332L16.5031 15.5301Z" fill="white"/>
</svg>
